<svg width="42" height="42" viewBox="0 0 42 42" fill="none" xmlns="http://www.w3.org/2000/svg">
<g clip-path="url(#clip0)">
<path d="M20.5414 36.8395C20.5414 34.6278 18.7486 32.835 16.5373 32.835C14.3257 32.835 12.5329 34.6278 12.5329 36.8391C12.5329 39.0508 14.3257 40.8436 16.5373 40.8436C18.7474 40.8412 20.539 39.05 20.5414 36.8395ZM13.9532 36.8395C13.9532 35.4121 15.1099 34.2553 16.5373 34.2553C17.9644 34.2553 19.1211 35.4121 19.1211 36.8391C19.1211 38.2665 17.9644 39.4233 16.5373 39.4233C15.1107 39.4217 13.9547 38.2657 13.9532 36.8395Z" fill="#FBFFFE"/>
<path d="M31.3647 40.8436C33.5764 40.844 35.3692 39.0512 35.3692 36.8395C35.3696 34.6278 33.5768 32.835 31.3651 32.835C29.1535 32.835 27.3607 34.6278 27.3607 36.8395C27.3634 39.0496 29.1542 40.8408 31.3647 40.8436ZM31.3647 34.2553C32.7918 34.2553 33.9489 35.4121 33.9489 36.8391C33.9493 38.2661 32.7922 39.4233 31.3651 39.4233C29.9381 39.4233 28.7809 38.2665 28.7809 36.8395C28.7825 35.4133 29.9385 34.2573 31.3647 34.2553Z" fill="#FBFFFE"/>
<path d="M0.710141 2.53634H5.04192C6.46736 2.5308 7.68276 3.56866 7.89992 4.97785L11.329 26.6383C11.6527 28.7386 13.4645 30.2861 15.5898 30.2778H36.7855C37.1774 30.2778 37.4956 29.9596 37.4956 29.5677C37.4956 29.1754 37.1774 28.8575 36.7855 28.8575H15.5898C14.1644 28.8631 12.949 27.8248 12.7318 26.416L12.1489 22.7334H33.8569C35.6949 22.7326 37.3308 21.5683 37.9331 19.8322L41.9605 8.20836C42.0362 7.99119 42.0018 7.75105 41.8686 7.5636C41.7351 7.37656 41.5195 7.2652 41.2896 7.2652H9.69985L9.30277 4.75553C8.979 2.65523 7.16719 1.10774 5.04192 1.11606H0.710141C0.31782 1.11606 0 1.43428 0 1.8262C0 2.21852 0.31782 2.53634 0.710141 2.53634ZM40.2918 8.68588L36.5913 19.3669C36.1871 20.5316 35.0898 21.3127 33.8569 21.3131H11.9238L9.92454 8.68548L40.2918 8.68588Z" fill="#FBFFFE"/>
</g>
<defs>
<clipPath id="clip0">
<rect width="42" height="42" fill="white"/>
</clipPath>
</defs>
</svg>
