<svg width="78" height="73" viewBox="0 0 78 73" fill="none" xmlns="http://www.w3.org/2000/svg">
<g filter="url(#filter0_d)">
<g clip-path="url(#clip0)">
<path d="M61.9844 18.0947C60.6187 14.244 58.0474 11.0736 54.7443 9.16746C51.3947 7.2346 47.6954 6.82768 44.328 8.022C40.9606 9.21623 38.3442 11.8629 36.9609 15.4743C36.0743 17.7888 35.765 20.3232 36.0314 22.8712C34.0855 22.0871 31.9118 21.7601 29.6488 21.9249C26.6963 22.1401 23.7849 23.1831 21.2295 24.9411C17.8635 27.2569 15.4665 30.5611 14.4804 34.245C13.4802 37.9808 14.0447 41.6593 16.0699 44.6028C17.7488 47.0433 20.247 48.725 23.2942 49.4661C23.5408 49.5261 23.7895 49.5792 24.0408 49.6256C26.7578 50.1278 29.7286 49.8408 32.4912 48.7979C32.9571 48.6221 33.1922 48.1018 33.0162 47.636C32.8405 47.17 32.3202 46.9351 31.8543 47.1109C26.4439 49.1533 20.7194 47.8222 17.7762 43.8852C18.8772 39.0254 23.646 35.85 28.5893 36.7638C30.9955 37.2086 33.421 36.8659 35.6032 35.7727C37.29 34.9277 38.7469 33.6501 39.8116 32.1045C40.3886 32.8222 41.0199 33.4855 41.6992 34.0873C41.6584 37.1211 40.3737 40.271 38.1362 42.7891C37.8054 43.1613 37.8391 43.7312 38.2113 44.062C38.3387 44.1752 38.4892 44.2457 38.6455 44.2746C38.9456 44.3301 39.2666 44.2317 39.4842 43.9869C41.692 41.5024 43.0772 38.4537 43.4201 35.4099C43.6764 35.5795 43.9372 35.7421 44.2032 35.8956C45.5957 36.6991 47.0485 37.2389 48.5129 37.5096C50.5711 37.8901 52.652 37.7389 54.6195 37.0411C57.987 35.8469 60.6033 33.2002 61.9866 29.5888C63.3509 26.0275 63.35 21.9454 61.9844 18.0947ZM28.9171 34.9904C23.6331 34.0137 18.5159 36.9534 16.5641 41.7459C14.4937 36.6903 16.7683 30.1992 22.2517 26.4268C26.7301 23.3457 32.2341 22.8126 36.3944 25.0243C36.5463 25.6764 36.7354 26.3256 36.9633 26.9683C37.4118 28.2332 37.9913 29.4241 38.6832 30.5214C36.7161 33.8767 32.7763 35.7038 28.9171 34.9904ZM45.1046 34.3337C42.1728 32.6419 39.8851 29.8121 38.6628 26.3655C36.2078 19.443 38.86 12.1342 44.5782 9.85514C48.9885 12.1761 50.8221 17.6049 48.6598 22.1437C47.3789 24.8324 47.2216 27.859 48.2171 30.666C48.9556 32.7482 50.2631 34.5242 51.9864 35.8255C49.7036 36.1196 47.3215 35.6129 45.1046 34.3337ZM54.3693 35.2078C52.283 34.1111 50.7091 32.2974 49.9168 30.0633C49.0823 27.7103 49.2141 25.1731 50.2879 22.9193C52.599 18.0682 51.0839 12.3645 46.9598 9.23874C52.3789 8.54747 58.0602 12.4245 60.2849 18.6975C62.7398 25.62 60.0876 32.9289 54.3693 35.2078Z" fill="#FF7816"/>
<path d="M35.9285 45.1832C35.6953 45.1401 35.449 45.1927 35.2536 45.3271C35.0573 45.4614 34.9211 45.6727 34.878 45.9059C34.8349 46.1391 34.8866 46.3852 35.0219 46.5808C35.1563 46.7762 35.3666 46.9132 35.6007 46.9564C35.8339 46.9995 36.0802 46.947 36.2756 46.8125C36.471 46.6781 36.6081 46.4669 36.6512 46.2337C36.6943 46.0005 36.6417 45.7542 36.5073 45.5588C36.3729 45.3634 36.1617 45.2263 35.9285 45.1832Z" fill="#FF7816"/>
</g>
<path d="M8.56721 56.88C10.3172 56.88 11.6272 57.26 12.4972 58.02C13.3672 58.77 13.8022 59.87 13.8022 61.32C13.8022 62.26 13.5922 63.085 13.1722 63.795C12.7522 64.495 12.1372 65.04 11.3272 65.43C10.5172 65.81 9.55221 66 8.43221 66L7.47221 65.985C6.83221 65.965 6.36221 65.955 6.06221 65.955C5.17221 65.955 4.49221 65.97 4.02221 66V65.7C4.36221 65.68 4.60721 65.64 4.75721 65.58C4.90721 65.52 5.00721 65.405 5.05721 65.235C5.11721 65.065 5.14721 64.79 5.14721 64.41V58.47C5.14721 58.09 5.11721 57.815 5.05721 57.645C5.00721 57.475 4.90721 57.36 4.75721 57.3C4.60721 57.24 4.36221 57.2 4.02221 57.18V56.88C4.40221 56.91 4.93721 56.925 5.62721 56.925L7.06721 56.91C7.80721 56.89 8.30721 56.88 8.56721 56.88ZM8.37221 57.15C8.11221 57.15 7.91721 57.185 7.78721 57.255C7.65721 57.325 7.56721 57.45 7.51721 57.63C7.46721 57.81 7.44221 58.08 7.44221 58.44V64.44C7.44221 64.8 7.46721 65.07 7.51721 65.25C7.56721 65.43 7.65721 65.555 7.78721 65.625C7.91721 65.695 8.11721 65.73 8.38721 65.73C9.15721 65.73 9.76221 65.57 10.2022 65.25C10.6422 64.92 10.9522 64.44 11.1322 63.81C11.3122 63.18 11.4022 62.37 11.4022 61.38C11.4022 59.92 11.1722 58.85 10.7122 58.17C10.2522 57.49 9.47221 57.15 8.37221 57.15ZM22.3754 64.74C22.6654 65.36 22.9804 65.68 23.3204 65.7V66C22.8404 65.97 22.1854 65.955 21.3554 65.955C20.2854 65.955 19.4954 65.97 18.9854 66V65.7C19.3154 65.68 19.5604 65.63 19.7204 65.55C19.8804 65.46 19.9604 65.315 19.9604 65.115C19.9604 64.935 19.8954 64.71 19.7654 64.44L19.0154 62.73H15.8654L15.6854 63.135C15.4054 63.795 15.2654 64.31 15.2654 64.68C15.2654 65.02 15.3754 65.27 15.5954 65.43C15.8154 65.59 16.1404 65.68 16.5704 65.7V66C16.0004 65.97 15.4254 65.955 14.8454 65.955C14.3054 65.955 13.9004 65.97 13.6304 66V65.7C13.8704 65.65 14.0904 65.5 14.2904 65.25C14.5004 64.99 14.7204 64.605 14.9504 64.095L18.1154 56.85C18.1954 56.86 18.3104 56.865 18.4604 56.865C18.6204 56.865 18.7354 56.86 18.8054 56.85L22.3754 64.74ZM18.8804 62.43L17.4404 59.145L16.0004 62.43H18.8804ZM30.4626 55.185C30.9826 55.185 31.3976 55.235 31.7076 55.335C32.0176 55.435 32.3326 55.58 32.6526 55.77C32.7626 55.83 32.8576 55.88 32.9376 55.92C33.0276 55.96 33.1026 55.98 33.1626 55.98C33.2526 55.98 33.3226 55.93 33.3726 55.83C33.4226 55.72 33.4626 55.55 33.4926 55.32H33.8376C33.7876 55.99 33.7626 57.13 33.7626 58.74H33.4176C33.3776 58.2 33.2526 57.685 33.0426 57.195C32.8426 56.705 32.5526 56.31 32.1726 56.01C31.8026 55.7 31.3676 55.545 30.8676 55.545C30.3776 55.545 29.9776 55.685 29.6676 55.965C29.3676 56.235 29.2176 56.605 29.2176 57.075C29.2176 57.425 29.2926 57.73 29.4426 57.99C29.5926 58.25 29.8026 58.49 30.0726 58.71C30.3426 58.92 30.7576 59.21 31.3176 59.58L31.7976 59.91C32.3876 60.3 32.8526 60.64 33.1926 60.93C33.5326 61.22 33.8076 61.56 34.0176 61.95C34.2376 62.33 34.3476 62.775 34.3476 63.285C34.3476 63.925 34.1826 64.465 33.8526 64.905C33.5226 65.335 33.0726 65.66 32.5026 65.88C31.9426 66.1 31.3176 66.21 30.6276 66.21C30.0676 66.21 29.6026 66.16 29.2326 66.06C28.8626 65.96 28.5226 65.825 28.2126 65.655C27.9926 65.515 27.8226 65.445 27.7026 65.445C27.6126 65.445 27.5426 65.5 27.4926 65.61C27.4426 65.71 27.4026 65.875 27.3726 66.105H27.0276C27.0676 65.475 27.0876 64.125 27.0876 62.055H27.4326C27.5026 63.175 27.7526 64.085 28.1826 64.785C28.6126 65.475 29.2726 65.82 30.1626 65.82C30.7026 65.82 31.1476 65.675 31.4976 65.385C31.8476 65.095 32.0226 64.68 32.0226 64.14C32.0226 63.58 31.8426 63.1 31.4826 62.7C31.1226 62.3 30.5526 61.85 29.7726 61.35C29.1726 60.96 28.6926 60.62 28.3326 60.33C27.9726 60.04 27.6776 59.7 27.4476 59.31C27.2176 58.91 27.1026 58.45 27.1026 57.93C27.1026 57.33 27.2526 56.825 27.5526 56.415C27.8626 55.995 28.2726 55.685 28.7826 55.485C29.2926 55.285 29.8526 55.185 30.4626 55.185ZM43.3024 64.05C43.3024 64.62 43.3374 65.27 43.4074 66C42.7574 65.97 41.6624 65.955 40.1224 65.955C38.0624 65.955 36.5124 65.97 35.4724 66V65.7C35.8124 65.68 36.0574 65.64 36.2074 65.58C36.3574 65.52 36.4574 65.405 36.5074 65.235C36.5674 65.065 36.5974 64.79 36.5974 64.41V58.47C36.5974 58.09 36.5674 57.815 36.5074 57.645C36.4574 57.475 36.3524 57.36 36.1924 57.3C36.0424 57.24 35.8024 57.2 35.4724 57.18V56.88C36.5124 56.91 38.0624 56.925 40.1224 56.925C41.5224 56.925 42.5174 56.91 43.1074 56.88C43.0374 57.55 43.0024 58.15 43.0024 58.68C43.0024 59.07 43.0174 59.38 43.0474 59.61H42.7024C42.5524 58.75 42.2924 58.14 41.9224 57.78C41.5524 57.41 41.0424 57.225 40.3924 57.225H39.8374C39.5774 57.225 39.3824 57.25 39.2524 57.3C39.1224 57.34 39.0274 57.43 38.9674 57.57C38.9174 57.7 38.8924 57.91 38.8924 58.2V61.26H39.5974C40.0574 61.26 40.4024 61.1 40.6324 60.78C40.8724 60.45 41.0324 60.07 41.1124 59.64H41.4574C41.4274 59.98 41.4124 60.37 41.4124 60.81V61.41C41.4124 61.86 41.4424 62.45 41.5024 63.18H41.1574C41.0874 62.71 40.9274 62.325 40.6774 62.025C40.4374 61.715 40.0774 61.56 39.5974 61.56H38.8924V64.68C38.8924 64.97 38.9174 65.185 38.9674 65.325C39.0274 65.455 39.1224 65.545 39.2524 65.595C39.3824 65.635 39.5774 65.655 39.8374 65.655H40.4824C41.1924 65.655 41.7474 65.45 42.1474 65.04C42.5574 64.63 42.8424 63.94 43.0024 62.97H43.3474C43.3174 63.25 43.3024 63.61 43.3024 64.05ZM54.318 65.37C54.078 65.65 53.808 65.86 53.508 66C53.208 66.14 52.833 66.21 52.383 66.21C51.813 66.21 51.373 66.1 51.063 65.88C50.753 65.66 50.553 65.365 50.463 64.995L50.028 63.225C49.918 62.665 49.748 62.295 49.518 62.115C49.298 61.925 48.968 61.83 48.528 61.83H48.033V64.41C48.033 64.79 48.058 65.065 48.108 65.235C48.168 65.405 48.273 65.52 48.423 65.58C48.583 65.64 48.828 65.68 49.158 65.7V66C48.588 65.97 47.773 65.955 46.713 65.955C45.783 65.955 45.083 65.97 44.613 66V65.7C44.953 65.68 45.198 65.64 45.348 65.58C45.498 65.52 45.598 65.405 45.648 65.235C45.708 65.065 45.738 64.79 45.738 64.41V58.47C45.738 58.09 45.708 57.815 45.648 57.645C45.598 57.475 45.498 57.36 45.348 57.3C45.198 57.24 44.953 57.2 44.613 57.18V56.88C45.083 56.91 45.753 56.925 46.623 56.925L48.333 56.91C48.533 56.9 48.758 56.895 49.008 56.895C50.348 56.895 51.348 57.1 52.008 57.51C52.678 57.91 53.013 58.47 53.013 59.19C53.013 59.81 52.748 60.355 52.218 60.825C51.688 61.295 50.803 61.595 49.563 61.725C49.703 61.725 49.848 61.74 49.998 61.77C50.718 61.85 51.283 62.01 51.693 62.25C52.113 62.49 52.388 62.87 52.518 63.39L52.833 64.725C52.903 65.005 52.988 65.205 53.088 65.325C53.188 65.445 53.313 65.505 53.463 65.505C53.673 65.505 53.888 65.395 54.108 65.175L54.318 65.37ZM48.813 57.18C48.593 57.18 48.428 57.215 48.318 57.285C48.208 57.355 48.133 57.48 48.093 57.66C48.053 57.84 48.033 58.11 48.033 58.47V61.53H48.678C49.418 61.53 49.923 61.34 50.193 60.96C50.473 60.58 50.613 60.045 50.613 59.355C50.613 58.625 50.473 58.08 50.193 57.72C49.923 57.36 49.463 57.18 48.813 57.18ZM64.3083 65.37C64.0683 65.65 63.7983 65.86 63.4983 66C63.1983 66.14 62.8233 66.21 62.3733 66.21C61.8033 66.21 61.3633 66.1 61.0533 65.88C60.7433 65.66 60.5433 65.365 60.4533 64.995L60.0183 63.225C59.9083 62.665 59.7383 62.295 59.5083 62.115C59.2883 61.925 58.9583 61.83 58.5183 61.83H58.0233V64.41C58.0233 64.79 58.0483 65.065 58.0983 65.235C58.1583 65.405 58.2633 65.52 58.4133 65.58C58.5733 65.64 58.8183 65.68 59.1483 65.7V66C58.5783 65.97 57.7633 65.955 56.7033 65.955C55.7733 65.955 55.0733 65.97 54.6033 66V65.7C54.9433 65.68 55.1883 65.64 55.3383 65.58C55.4883 65.52 55.5883 65.405 55.6383 65.235C55.6983 65.065 55.7283 64.79 55.7283 64.41V58.47C55.7283 58.09 55.6983 57.815 55.6383 57.645C55.5883 57.475 55.4883 57.36 55.3383 57.3C55.1883 57.24 54.9433 57.2 54.6033 57.18V56.88C55.0733 56.91 55.7433 56.925 56.6133 56.925L58.3233 56.91C58.5233 56.9 58.7483 56.895 58.9983 56.895C60.3383 56.895 61.3383 57.1 61.9983 57.51C62.6683 57.91 63.0033 58.47 63.0033 59.19C63.0033 59.81 62.7383 60.355 62.2083 60.825C61.6783 61.295 60.7933 61.595 59.5533 61.725C59.6933 61.725 59.8383 61.74 59.9883 61.77C60.7083 61.85 61.2733 62.01 61.6833 62.25C62.1033 62.49 62.3783 62.87 62.5083 63.39L62.8233 64.725C62.8933 65.005 62.9783 65.205 63.0783 65.325C63.1783 65.445 63.3033 65.505 63.4533 65.505C63.6633 65.505 63.8783 65.395 64.0983 65.175L64.3083 65.37ZM58.8033 57.18C58.5833 57.18 58.4183 57.215 58.3083 57.285C58.1983 57.355 58.1233 57.48 58.0833 57.66C58.0433 57.84 58.0233 58.11 58.0233 58.47V61.53H58.6683C59.4083 61.53 59.9133 61.34 60.1833 60.96C60.4633 60.58 60.6033 60.045 60.6033 59.355C60.6033 58.625 60.4633 58.08 60.1833 57.72C59.9133 57.36 59.4533 57.18 58.8033 57.18ZM72.6635 64.74C72.9535 65.36 73.2685 65.68 73.6085 65.7V66C73.1285 65.97 72.4735 65.955 71.6435 65.955C70.5735 65.955 69.7835 65.97 69.2735 66V65.7C69.6035 65.68 69.8485 65.63 70.0085 65.55C70.1685 65.46 70.2485 65.315 70.2485 65.115C70.2485 64.935 70.1835 64.71 70.0535 64.44L69.3035 62.73H66.1535L65.9735 63.135C65.6935 63.795 65.5535 64.31 65.5535 64.68C65.5535 65.02 65.6635 65.27 65.8835 65.43C66.1035 65.59 66.4285 65.68 66.8585 65.7V66C66.2885 65.97 65.7135 65.955 65.1335 65.955C64.5935 65.955 64.1885 65.97 63.9185 66V65.7C64.1585 65.65 64.3785 65.5 64.5785 65.25C64.7885 64.99 65.0085 64.605 65.2385 64.095L68.4035 56.85C68.4835 56.86 68.5985 56.865 68.7485 56.865C68.9085 56.865 69.0235 56.86 69.0935 56.85L72.6635 64.74ZM69.1685 62.43L67.7285 59.145L66.2885 62.43H69.1685Z" fill="#FF7816"/>
</g>
<defs>
<filter id="filter0_d" x="-4" y="0" width="85" height="78" filterUnits="userSpaceOnUse" color-interpolation-filters="sRGB">
<feFlood flood-opacity="0" result="BackgroundImageFix"/>
<feColorMatrix in="SourceAlpha" type="matrix" values="0 0 0 0 0 0 0 0 0 0 0 0 0 0 0 0 0 0 127 0"/>
<feOffset dy="2"/>
<feGaussianBlur stdDeviation="2"/>
<feColorMatrix type="matrix" values="0 0 0 0 0.0385417 0 0 0 0 0.25 0 0 0 0 0.222953 0 0 0 0.8 0"/>
<feBlend mode="normal" in2="BackgroundImageFix" result="effect1_dropShadow"/>
<feBlend mode="normal" in="SourceGraphic" in2="effect1_dropShadow" result="shape"/>
</filter>
<clipPath id="clip0">
<rect width="46.169" height="46.169" fill="white" transform="translate(20.3923 2) rotate(10.4731)"/>
</clipPath>
</defs>
</svg>
